<svg xmlns="http://www.w3.org/2000/svg" fill="none" viewBox="0 0 40 40" height="40" width="40">
<path fill="#D7ECF7" d="M35.2746 25.6418C35.2679 25.6485 35.2679 25.6551 35.2612 25.6618C35.1199 25.8565 34.9252 25.9911 34.7039 26.0445H34.6972C34.6239 26.0645 34.5426 26.0711 34.4626 26.0711H8.93989C8.85323 26.0711 8.77189 26.0645 8.69856 26.0445C8.47056 25.9911 8.27589 25.8565 8.13456 25.6618C8.12789 25.6551 8.12789 25.6485 8.12123 25.6418C8.01456 25.4938 7.95989 25.3191 7.94656 25.1325C7.93323 25.0045 7.95323 24.8778 7.98656 24.7565L11.6359 13.1485C11.8572 12.4511 12.4879 11.9805 13.2066 11.9805H30.1879C30.9052 11.9805 31.5372 12.4498 31.7586 13.1485L35.4079 24.7565C35.5026 25.0578 35.4492 25.3871 35.2746 25.6418Z"></path>
<path fill="#1E306E" d="M33.7891 23.1763C33.7958 22.995 33.7758 22.8003 33.7158 22.619L30.0651 11.0123C29.7558 10.0323 28.8705 9.375 27.8571 9.375H10.8758C9.86248 9.375 8.97714 10.0323 8.66781 11.0123L5.01848 22.6203C4.95848 22.8017 4.93848 22.9897 4.94514 23.1843C4.93848 23.1977 4.93848 23.2043 4.93848 23.2177V26.659C4.93848 26.699 4.94514 26.739 4.94514 26.7803C4.95181 26.8883 4.96514 26.9883 4.99848 27.0883C5.04514 27.2963 5.13314 27.4843 5.25981 27.659C5.56781 28.095 6.06514 28.3497 6.60781 28.3497H7.62781V29.483C7.62781 29.503 7.62781 29.5297 7.63448 29.5497C7.67448 30.1537 8.30514 30.623 9.10381 30.623C9.90248 30.623 10.5331 30.1537 10.5731 29.5497C10.5798 29.5297 10.5798 29.5097 10.5798 29.483V28.3497H28.1598V29.483C28.1598 29.503 28.1598 29.5297 28.1665 29.5497C28.2065 30.1537 28.8371 30.623 29.6358 30.623C30.4345 30.623 31.0651 30.1537 31.1051 29.5497C31.1118 29.5297 31.1118 29.5097 31.1118 29.483V28.3497H32.1318C32.6625 28.3497 33.1651 28.0883 33.4731 27.659C33.5945 27.4843 33.6878 27.2963 33.7345 27.0883C33.7345 27.0883 33.7411 27.0883 33.7411 27.0817C33.7745 26.947 33.7945 26.807 33.7945 26.6657V23.2163C33.7958 23.203 33.7958 23.1897 33.7891 23.1763ZM5.65581 22.8203L9.30648 11.2123C9.52781 10.515 10.1585 10.0443 10.8771 10.0443H27.8585C28.5758 10.0443 29.2065 10.5137 29.4291 11.2123L33.0785 22.8203C33.1718 23.1217 33.1185 23.451 32.9438 23.7057C32.9371 23.7123 32.9371 23.719 32.9305 23.7257C32.7891 23.9203 32.5945 24.055 32.3731 24.1083H32.3665C32.2931 24.1283 32.2118 24.135 32.1318 24.135H6.60914C6.52248 24.135 6.44114 24.1283 6.36781 24.1083C6.13981 24.055 5.94514 23.9203 5.80381 23.7257C5.79714 23.719 5.79714 23.7123 5.79048 23.7057C5.68248 23.5577 5.62914 23.383 5.61581 23.1963C5.60248 23.0683 5.62248 22.9417 5.65581 22.8203ZM9.91048 29.483C9.91048 29.7043 9.58114 29.9523 9.10514 29.9523C8.62914 29.9523 8.29981 29.7043 8.29981 29.483V28.3497H9.91048V29.483ZM30.4411 29.483C30.4411 29.7043 30.1131 29.9523 29.6358 29.9523C29.1598 29.9523 28.8305 29.7043 28.8305 29.483V28.3497H30.4411V29.483ZM33.1251 26.6643C33.1251 26.879 33.0585 27.0937 32.9305 27.2683C32.7425 27.523 32.4545 27.6777 32.1318 27.6777H6.60914C6.28114 27.6777 5.99181 27.523 5.80381 27.2617C5.68914 27.1137 5.62914 26.9257 5.61581 26.7377C5.61581 26.711 5.60914 26.6843 5.60914 26.6577V24.4777C5.77714 24.599 5.96514 24.6923 6.16648 24.739C6.30781 24.7857 6.45448 24.8057 6.60914 24.8057H32.1318C32.2798 24.8057 32.4278 24.7857 32.5678 24.739C32.7691 24.6923 32.9571 24.591 33.1251 24.4643V26.6643Z"></path>
</svg>
