<svg xmlns="http://www.w3.org/2000/svg" fill="none" viewBox="0 0 40 40" height="40" width="40">
<path fill="#D7ECF7" d="M36.2213 25.0859H5.90527V29.0713H36.2213V25.0859Z"></path>
<path fill="#D7ECF7" d="M33.1217 11.1445H8.99902V20.5485H33.1217V11.1445Z"></path>
<path fill="#1E306E" d="M36.5521 24.423H35.3295V22.4337C35.3295 21.5084 34.6615 20.735 33.7828 20.583V10.815C33.7828 10.6297 33.6375 10.4844 33.4521 10.4844H8.66814C8.48281 10.4844 8.33747 10.6297 8.33747 10.815V20.583C7.45881 20.735 6.79081 21.5084 6.79081 22.4337V24.423H5.57481C5.38947 24.423 5.24414 24.5684 5.24414 24.7537V29.4004C5.24414 29.5857 5.38947 29.731 5.57481 29.731H36.5508C36.7295 29.731 36.8815 29.5857 36.8815 29.4004V24.7537C36.8828 24.5684 36.7308 24.423 36.5521 24.423ZM8.99881 11.1457H33.1215V20.5497H8.99881V11.1457ZM7.45214 22.4337C7.45214 21.759 8.00014 21.211 8.66814 21.211H33.4521C34.1201 21.211 34.6681 21.759 34.6681 22.4337V24.423H7.45214V22.4337ZM36.2215 29.0697H5.90547V25.0844H36.2215V29.0697Z"></path>
</svg>
