<svg xmlns="http://www.w3.org/2000/svg" fill="none" viewBox="0 0 40 40" height="40" width="40">
<path fill="#D7ECF7" d="M21.184 23.4202H14.928C14.36 23.4202 13.8147 23.2015 13.4054 22.8082L5.20669 14.9482C4.86669 14.6228 4.85602 14.0842 5.18135 13.7442L7.04802 11.7975C7.37335 11.4575 7.91202 11.4468 8.25202 11.7722L15.5654 18.7828C15.724 18.9348 15.9347 19.0202 16.1547 19.0202H20.5494C20.7094 19.0202 20.8667 18.9748 21.0027 18.8895L25.0254 16.3588C25.4307 16.1042 25.9067 15.9882 26.384 16.0295L32.6694 16.5655C32.6734 16.5655 32.6787 16.5668 32.6827 16.5668L34.676 16.7495C35.144 16.7922 35.4894 17.2068 35.4467 17.6748L35.2 20.3602C35.1574 20.8282 34.7427 21.1735 34.2747 21.1308L32.288 20.9495L27.028 20.5015C26.844 20.4855 26.6587 20.5308 26.5027 20.6295L22.808 22.9535C22.3214 23.2575 21.7587 23.4202 21.184 23.4202Z"></path>
<path fill="#1E306E" d="M22.0866 23.8201H14.3012C14.1999 23.8201 14.1012 23.7814 14.0266 23.7108L4.24791 14.5081C4.08658 14.3561 4.07991 14.1041 4.23058 13.9428C4.38258 13.7814 4.63458 13.7734 4.79591 13.9254L14.4586 23.0201H21.9866L27.6092 20.0668C27.6746 20.0321 27.7492 20.0161 27.8239 20.0214L35.3492 20.5574C35.5692 20.5734 35.7359 20.7641 35.7199 20.9854C35.7039 21.2068 35.5132 21.3734 35.2919 21.3561L27.8799 20.8281L22.2719 23.7748C22.2159 23.8041 22.1519 23.8201 22.0866 23.8201Z"></path>
<path fill="#1E306E" d="M30.9548 24.4023H3.74814C3.52681 24.4023 3.34814 24.5823 3.34814 24.8023C3.34814 25.0237 3.52681 25.2023 3.74814 25.2023H4.52281V27.3503C4.52281 27.3717 4.52281 27.401 4.52948 27.4223C4.57348 28.073 5.25348 28.5797 6.11348 28.5797C6.97348 28.5797 7.65348 28.073 7.69748 27.4223C7.70414 27.401 7.70414 27.3797 7.70414 27.3503V25.2023H26.9335V27.3503C26.9335 27.3717 26.9335 27.401 26.9401 27.4223C26.9841 28.073 27.6628 28.5797 28.5241 28.5797C29.3841 28.5797 30.0641 28.073 30.1068 27.4223C30.1148 27.401 30.1148 27.3797 30.1148 27.3503V25.2023H30.9548C31.1748 25.2023 31.3548 25.0237 31.3548 24.8023C31.3548 24.5823 31.1748 24.4023 30.9548 24.4023ZM6.98814 26.129H6.98148V27.3503C6.98148 27.589 6.62681 27.857 6.11348 27.857C5.60014 27.857 5.24548 27.589 5.24548 27.3503V25.2023H6.98814V26.129ZM29.3988 26.129H29.3921V27.3503C29.3921 27.589 29.0375 27.857 28.5241 27.857C28.0108 27.857 27.6561 27.589 27.6561 27.3503V25.2023H29.3988V26.129Z"></path>
</svg>
