<svg xmlns="http://www.w3.org/2000/svg" fill="none" viewBox="0 0 40 40" height="40" width="40">
<path fill="#D7ECF7" d="M35.0257 12.5859H8.63232V22.8753H35.0257V12.5859Z"></path>
<path fill="#1E306E" d="M33.9416 10.4141H6.82422C6.62156 10.4141 6.46289 10.5727 6.46289 10.7754V21.7887C6.46289 21.9914 6.62156 22.1501 6.82422 22.1501H7.95889V26.7847C7.95889 26.8061 7.95889 26.8354 7.96556 26.8567C8.00956 27.5074 8.68822 28.0141 9.54956 28.0141C10.4109 28.0141 11.0896 27.5074 11.1336 26.8567C11.1402 26.8354 11.1402 26.8127 11.1402 26.7847V22.1501H30.0856V26.7847C30.0856 26.8061 30.0856 26.8354 30.0922 26.8567C30.1362 27.5074 30.8149 28.0141 31.6762 28.0141C32.5362 28.0141 33.2162 27.5074 33.2602 26.8567C33.2669 26.8354 33.2669 26.8127 33.2669 26.7847V22.1501H33.9389C34.1336 22.1501 34.3002 21.9914 34.3002 21.7887V10.7754C34.3029 10.5741 34.1362 10.4141 33.9416 10.4141ZM10.4256 25.5647H10.4189V26.7874C10.4189 27.0261 10.0642 27.2941 9.55089 27.2941C9.03756 27.2941 8.68289 27.0261 8.68289 26.7874V22.1527H10.4256V25.5647ZM32.5536 25.5647H32.5469V26.7874C32.5469 27.0261 32.1922 27.2941 31.6789 27.2941C31.1656 27.2941 30.8109 27.0261 30.8109 26.7874V22.1527H32.5536V25.5647ZM33.5802 21.4274H7.18556V11.1381H33.5789V21.4274H33.5802Z"></path>
</svg>
